<svg width="28" height="29" viewBox="0 0 28 29" fill="none" xmlns="http://www.w3.org/2000/svg">
<path d="M3.36453 0.463748C2.79502 -0.154583 1.87165 -0.154583 1.30214 0.463748C0.732621 1.08208 0.732621 2.08459 1.30214 2.70292L11.9376 14.25L1.30214 25.7971C0.732624 26.4154 0.732624 27.4179 1.30214 28.0362C1.87165 28.6546 2.79502 28.6546 3.36453 28.0362L14 16.4892L24.6355 28.0362C25.205 28.6546 26.1283 28.6546 26.6979 28.0362C27.2674 27.4179 27.2674 26.4154 26.6979 25.7971L16.0624 14.25L26.6979 2.70292C27.2674 2.08459 27.2674 1.08208 26.6979 0.463748C26.1283 -0.154583 25.205 -0.154583 24.6355 0.463748L14 12.0108L3.36453 0.463748Z" fill="#9C2B1B"/>
</svg>
