<svg width="225" height="208" viewBox="0 0 225 208" fill="none" xmlns="http://www.w3.org/2000/svg">
<path d="M74.3148 110.088C74.3148 117.755 80.3777 123.998 87.7355 123.998C95.2109 123.998 101.156 117.755 101.156 110.089C101.274 102.477 95.27 96.1798 87.7361 96.1798C80.2601 96.1798 74.3148 102.423 74.3148 110.088Z" fill="#5865F2"/>
<path d="M123.936 110.088C123.936 117.755 129.999 123.998 137.356 123.998C144.89 123.998 150.776 117.755 150.776 110.089C150.894 102.477 144.89 96.1798 137.356 96.1798C129.88 96.1798 123.936 102.423 123.936 110.088Z" fill="#5865F2"/>
<path fill-rule="evenodd" clip-rule="evenodd" d="M6.60363 28.756C0.5 39.8259 0.5 54.3173 0.5 83.3V124.7C0.5 153.683 0.5 168.174 6.60363 179.244C11.9725 188.981 20.5395 196.898 31.0765 201.86C43.0556 207.5 58.7371 207.5 90.1 207.5H134.9C166.263 207.5 181.944 207.5 193.923 201.86C204.461 196.898 213.027 188.981 218.396 179.244C224.5 168.174 224.5 153.683 224.5 124.7V83.3C224.5 54.3173 224.5 39.8259 218.396 28.756C213.027 19.0186 204.461 11.1019 193.923 6.14041C181.944 0.5 166.263 0.5 134.9 0.5H90.1C58.7371 0.5 43.0556 0.5 31.0765 6.14041C20.5395 11.1019 11.9725 19.0186 6.60363 28.756ZM133.854 52.2574C144.351 53.9343 154.568 56.8629 164.25 60.9697C164.334 61.0014 164.403 61.0592 164.444 61.1336C181.308 84.056 189.637 109.913 186.524 139.681C186.518 139.743 186.497 139.804 186.463 139.859C186.43 139.914 186.384 139.961 186.329 139.998C173.556 148.666 161.183 153.929 148.981 157.417C148.886 157.444 148.785 157.443 148.691 157.413C148.597 157.384 148.515 157.328 148.457 157.253C145.638 153.628 143.078 149.805 140.835 145.792C140.804 145.737 140.787 145.676 140.783 145.615C140.779 145.553 140.79 145.491 140.813 145.433C140.837 145.375 140.874 145.322 140.922 145.278C140.969 145.235 141.026 145.201 141.089 145.178C145.122 143.776 149.021 142.062 152.743 140.053C152.81 140.015 152.866 139.963 152.907 139.901C152.947 139.839 152.971 139.769 152.975 139.696C152.979 139.624 152.963 139.551 152.93 139.486C152.897 139.42 152.847 139.363 152.784 139.319C151.995 138.777 151.212 138.207 150.464 137.638C150.397 137.587 150.315 137.555 150.229 137.545C150.142 137.535 150.054 137.549 149.976 137.583C125.825 147.895 99.3667 147.895 74.9271 137.583C74.8485 137.551 74.7617 137.539 74.6764 137.55C74.591 137.561 74.5107 137.593 74.4442 137.644C73.697 138.213 72.9136 138.777 72.1308 139.319C72.0682 139.363 72.0182 139.421 71.9854 139.487C71.9525 139.553 71.9378 139.625 71.9425 139.698C71.9471 139.771 71.9711 139.841 72.0122 139.903C72.0533 139.965 72.1103 140.017 72.1781 140.053C75.8984 142.025 79.7655 143.76 83.8273 145.184C83.89 145.205 83.9471 145.239 83.9949 145.282C84.0426 145.325 84.0799 145.377 84.1044 145.434C84.1289 145.492 84.1399 145.553 84.1367 145.615C84.1336 145.677 84.1164 145.737 84.0862 145.792C81.8904 149.811 79.3299 153.634 76.4577 157.259C76.3983 157.331 76.3163 157.385 76.2227 157.414C76.129 157.442 76.0283 157.443 75.9338 157.417C63.7906 153.929 51.4177 148.667 38.6447 139.998C38.5907 139.959 38.5456 139.911 38.5123 139.855C38.4789 139.8 38.458 139.739 38.4506 139.676C35.8485 113.928 41.1523 87.8567 60.5121 61.1284C60.5592 61.0575 60.629 61.0019 60.7118 60.9692C70.3923 56.8593 80.6103 53.931 91.1086 52.2579C91.2037 52.2439 91.3012 52.2567 91.3883 52.2947C91.4754 52.3326 91.5482 52.394 91.597 52.4707C92.9155 54.6287 94.4225 57.3938 95.4405 59.6553C106.683 58.0672 118.102 58.0672 129.581 59.6553C130.598 57.4433 132.053 54.6287 133.365 52.4707C133.412 52.3922 133.485 52.3293 133.572 52.291C133.66 52.2527 133.759 52.2409 133.854 52.2574Z" fill="#5865F2"/>
</svg>
