<svg width="215" height="34" viewBox="0 0 215 34" fill="none" xmlns="http://www.w3.org/2000/svg">
<path d="M215 13.808C215 16.7624 213.705 19.2556 211.398 19.2556C209.097 19.2556 207.802 16.7624 207.802 13.808C207.802 10.8608 209.097 8.37475 211.398 8.37475C213.705 8.38196 215 10.8608 215 13.808ZM211.398 18.1387C213.141 18.1387 214.129 16.2291 214.129 13.808C214.129 11.394 213.146 9.49166 211.398 9.49166C209.665 9.49166 208.683 11.4012 208.673 13.808C208.678 16.2363 209.66 18.1387 211.398 18.1387ZM212.275 14.5718C213.623 14.1178 213.344 11.0337 211.707 11.0337H209.94V16.575H210.917V14.86H211.259L212.14 16.5822H213.19V16.2652L212.275 14.5718ZM211.707 12.3524C212.284 12.3524 212.284 13.6206 211.707 13.6206H210.922V12.3524H211.707ZM122.814 27.2829C122.814 29.8266 121.124 31.8082 119.207 31.4047C119.694 32.0892 120.878 32.5504 121.509 32.1253C121.148 33.0981 119.419 34.4816 117.782 33.8331C116.251 33.2206 115.582 31.0372 115.543 29.6465C114.821 30.7273 115.018 32.4928 115.534 33.1845C114.937 32.9539 114.036 32.0244 113.887 30.3598C113.757 28.9331 114.291 27.2973 113.295 25.9859C112.698 25.2004 111.792 24.0835 111.205 23.3918C109.972 21.9506 110.44 20.8913 110.165 20.1275C109.953 19.5366 109.438 19.2124 109.125 18.6719C108.812 18.1315 108.827 17.3316 109 16.8705C108.947 17.5118 109.255 17.9946 109.664 18.1963C110.117 18.4197 110.502 18.2324 110.887 18.571C111.354 18.9746 111.138 20.0627 111.475 20.4446C111.778 20.7832 112.534 20.3293 113.179 21.1075C113.829 21.8857 115.278 23.6944 115.904 24.4654C117.026 25.849 118.187 24.2709 117.801 22.6856C118.943 23.6944 119.068 26.5263 118.119 27.5135C119.015 27.8162 120.628 27.2181 120.628 25.2797C120.628 24.0907 119.896 23.2549 119.376 23.1251C121.21 22.8657 122.814 24.7969 122.814 27.2829ZM103.53 12.5037C103.641 11.848 102.769 10.7239 102.447 10.5077C103.641 10.4356 104.238 10.7743 104.238 10.7743C103.925 10.0825 103.824 9.03048 104.002 8.1946C104.657 10.5365 106.987 10.9112 107.565 12.8568C107.483 12.0137 106.954 11.0769 106.342 10.5293C106.01 9.25387 106.26 6.90475 106.66 6.25623C106.52 9.63578 109.741 11.5669 110.411 14.0241C110.016 11.92 108.518 10.5942 107.801 9.33313C107.565 8.49725 107.748 7.0849 108.003 6.60211C107.926 8.86475 109.558 10.6302 110.435 11.8912C111.46 13.3828 111.754 14.6943 111.614 15.7752C111.841 15.8616 112.149 16.1931 112.096 16.748C112.423 16.6327 112.76 16.0706 112.837 15.7247C112.996 17.4037 112.337 19.1835 111.6 19.7096C111.6 19.7096 111.802 18.9097 111.46 18.2972C111.128 17.6919 110.184 17.6847 109.867 17.7208C109.867 17.7208 110.261 16.8488 110.102 16.4093C109.91 15.8688 108.066 16.1066 107.238 16.5534C107.517 16.5102 108.186 16.6183 108.417 16.7624C108.287 17.0506 107.95 18.2684 108.191 18.6359C108.417 18.9674 108.711 18.3909 108.711 18.3909C108.711 18.3909 108.422 19.724 108.629 20.0338C108.836 20.3365 109.279 20.1203 109.279 20.1203C109.005 21.1652 107.931 21.8857 107.18 21.8857C107.449 21.756 107.888 21.0427 107.955 20.6175C107.758 20.7616 107.247 20.8481 107.045 20.7977C107.291 20.6535 107.777 19.7096 107.623 18.6647C107.401 17.1299 105.971 16.9353 105.254 17.6775C105.485 16.6471 106.183 15.6815 106.727 15.3644C106.409 15.1987 106.034 15.0546 105.634 14.9465C106.092 14.3844 107.242 13.9305 107.825 13.9737C106.934 13.6278 105.297 14.053 104.551 15.3788C104.787 15.3788 105.408 15.5518 105.644 15.6671C104.613 15.9481 103.217 17.3749 102.808 18.0522C102.919 17.1659 103.082 16.4093 102.943 15.8761C102.745 15.1266 102.134 14.8096 100.916 15.1843C101.734 13.9377 103.415 13.1739 103.53 12.5037ZM110.584 15.7536L110.473 15.2059C110.464 15.1483 110.179 13.8152 109.226 13.2964L108.706 13.0081L108.855 13.808C108.985 14.4925 109.226 15.7536 110.199 15.7536H110.584ZM73.8221 17.5406C73.8221 22.8009 71.0247 26.7641 67.3124 26.7641C63.576 26.7641 60.8652 22.9378 60.8652 17.6559C60.8652 12.2947 63.5616 8.41078 67.2787 8.41078C71.0054 8.41078 73.8221 12.338 73.8221 17.5406ZM70.3939 17.5406C70.3939 14.6222 69.1613 12.7415 67.2498 12.7415C65.4153 12.7415 64.279 14.6294 64.279 17.6631C64.279 20.5959 65.4827 22.4838 67.3461 22.4838C69.1372 22.4838 70.3939 20.4518 70.3939 17.5406ZM13.0628 17.5334C13.0628 19.6015 12.6102 21.6407 11.8206 23.1179C11.4739 23.7737 11.0454 24.3574 10.5446 24.869C9.36499 26.0507 8.27682 26.4903 6.52901 26.4903H0.308154L0.572974 26.2597C0.572974 26.2525 1.34336 25.5823 1.69966 25.2581C2.04633 24.9482 2.18597 24.6456 2.18597 23.5431V13.2531C2.18597 12.1218 1.97893 11.8119 1.68522 11.4949C0.149262 9.81592 0.0192595 7.89196 0.0144446 7.81269L0 7.55328L0.144447 7.6974C0.149262 7.7046 0.659642 8.1946 1.2278 8.38916C1.88263 8.61254 2.78302 8.65578 4.67527 8.65578H7.06828V8.67019C8.26238 8.74225 9.13388 9.06651 9.99574 9.74386C11.9169 11.2499 13.0628 14.1611 13.0628 17.5334ZM9.60574 17.5766C9.60574 14.6583 8.59942 12.9793 6.8468 12.9793H5.50825V22.1452H6.8468C8.59942 22.1524 9.60574 20.4806 9.60574 17.5766ZM92.2006 15.069L91.7191 14.8961L91.6758 14.8816C90.5443 14.4781 89.8028 14.1611 89.8028 13.4405C89.8028 13.1955 89.8462 13.0009 89.9473 12.864C90.1447 12.5614 90.5636 12.3956 91.1173 12.3956C91.2088 12.3956 91.3051 12.4028 91.4014 12.41H91.4351C91.4543 12.41 91.4736 12.4172 91.4929 12.4172C92.5184 12.5542 93.7366 13.2171 94.9933 14.4637L94.8007 9.20342L94.5696 9.08813L94.5262 9.06651C94.507 9.0521 94.377 8.98725 93.9822 8.85754C93.7462 8.77828 92.5377 8.38916 91.8106 8.3099C91.5747 8.28107 91.3436 8.26666 91.1221 8.26666C88.4739 8.26666 86.9187 10.1474 86.755 13.5702C86.6731 15.278 87.2317 16.9497 88.185 17.8144C89.0324 18.5855 90.2988 19.1691 91.2232 19.5943L91.4351 19.688C92.0129 19.9546 92.6773 20.4878 92.5858 21.5254C92.5377 22.0659 92.398 22.6496 91.3099 22.6496C91.151 22.6496 90.9777 22.6352 90.7899 22.6135C90.0387 22.5127 89.1624 21.8713 88.1898 20.7112C88.1513 20.6607 88.1176 20.6247 88.0983 20.6031L87.4965 19.9185L86.8802 19.2196L87.1257 25.885L87.3617 26.0003L87.4002 26.0219C87.4098 26.0219 87.535 26.0868 87.9394 26.2237C88.3391 26.3534 89.6536 26.6993 90.3228 26.7713C90.5395 26.7929 90.761 26.8073 90.9777 26.8073C93.8762 26.8073 95.7829 24.6528 95.8407 21.3165C95.9033 18.1099 94.6755 16.0058 92.2006 15.069ZM57.5622 22.1524H54.861V19.5438H57.3889C57.7211 19.5366 58.0774 19.5294 58.2796 19.6807C58.5156 19.8537 58.6841 20.214 58.6841 20.2212L58.8044 20.495L58.7996 14.788L58.6985 14.8744C58.6937 14.8744 58.5348 15.0258 58.4 15.1122C58.2796 15.1843 58.1978 15.2203 57.6537 15.2203H54.8562V12.9937H57.6585C58.3759 12.9937 58.5348 13.0874 58.9441 13.5197L59.6374 14.3124L59.2715 8.66298H49.7428L49.998 8.89357C50.0028 8.90078 50.6528 9.49166 51.0428 9.88798C51.4039 10.2483 51.5388 10.4933 51.5388 11.6462V23.5287C51.5388 24.696 51.4184 24.905 51.0524 25.2437C50.6865 25.5823 49.9354 26.2309 49.9306 26.2381L49.6609 26.4759H59.5411L60.4271 20.531C60.4271 20.531 59.6326 21.3885 59.4063 21.6047C58.9682 22.0082 58.6263 22.1524 57.5622 22.1524ZM39.0344 8.67019H32.2888L32.5439 8.90078C32.5488 8.90798 33.1988 9.49887 33.5888 9.89519C33.9499 10.2555 34.0847 10.4933 34.0847 11.6534V15.9697L29.1061 8.67019H21.2771C21.046 8.67019 20.7956 8.88637 20.7859 8.89357L20.7089 8.96563L20.7619 9.08092C20.7619 9.08092 20.9352 9.43401 21.0363 9.67181C21.1134 9.85195 21.1567 9.97445 21.1711 10.4572V19.5582L21.176 19.6303C21.1567 21.5471 20.5885 22.5199 19.3848 22.5199C18.1618 22.5199 17.5407 21.511 17.5407 19.5438L17.5359 10.4644C17.5455 9.98886 17.5889 9.86636 17.6659 9.67901C17.767 9.44122 17.9403 9.08813 17.9452 9.08813L17.9981 8.97284L17.9163 8.90078C17.9066 8.89357 17.6563 8.6774 17.4251 8.6774H12.4176L12.6728 8.90798C12.6776 8.91519 13.3228 9.50607 13.7225 9.90239C14.0836 10.2555 14.2184 10.5005 14.2184 11.6606V19.0106C14.2184 20.6319 14.3484 21.929 14.594 22.7721C14.7721 23.3701 15.0466 23.9466 15.4366 24.5375C16.4573 26.0435 17.7477 26.7785 19.3752 26.7785C21.6382 26.7785 23.4101 25.2509 24.1179 22.6928C24.3923 21.6984 24.4838 20.8121 24.4838 19.1547V11.6606C24.4838 10.5005 24.6234 10.2627 24.9797 9.90239C25.1964 9.69342 25.4805 9.42681 25.6972 9.21784C25.8994 9.4196 26.1594 9.67901 26.3424 9.88078C26.689 10.2555 26.8527 10.6374 26.8527 11.7975V23.5431C26.8527 24.696 26.7131 24.941 26.3664 25.2581C25.986 25.604 25.2446 26.2453 25.2446 26.2525L24.9749 26.4903H31.7399L31.4654 26.2525C31.4558 26.2453 30.7047 25.5968 30.3435 25.2581C30.0065 24.941 29.8572 24.6744 29.8572 23.5431V16.4597L37.0892 27.0596V11.6462C37.0892 10.5005 37.2192 10.2627 37.5852 9.88798C37.9848 9.48445 38.7215 8.90798 38.7311 8.90078L39.0344 8.67019ZM87.2798 8.67019H80.5341L80.7845 8.90078C80.7941 8.90798 81.4393 9.49887 81.8293 9.89519C82.1905 10.2555 82.3253 10.4933 82.3253 11.6534V15.9697L77.3466 8.6774H73.384L73.6199 8.90798C73.6247 8.91519 74.2314 9.50607 74.5829 9.88798C74.9296 10.2627 75.0933 10.6446 75.0933 11.8047V23.5503C75.0933 24.7032 74.9537 24.9482 74.607 25.2653C74.2266 25.6112 73.4899 26.2525 73.4803 26.2597L73.2058 26.4975H79.9756L79.7011 26.2597C79.6915 26.2525 78.9452 25.604 78.5793 25.2653C78.2374 24.9482 78.093 24.6816 78.093 23.5503V16.4669L85.325 27.0668V11.6462C85.325 10.5005 85.4501 10.2627 85.8209 9.88798C86.2205 9.48445 86.9572 8.90798 86.9668 8.90078L87.2798 8.67019ZM49.6802 25.4454C49.6802 25.4382 49.502 25.0851 49.4009 24.8473C49.3095 24.6384 49.2565 24.4582 49.2565 23.7232V18.9169C49.2565 18.1891 49.2998 18.0522 49.3913 17.836C49.4924 17.5983 49.6658 17.2452 49.6658 17.238L49.7235 17.1227L49.6369 17.0506C49.6272 17.0434 49.4058 16.8705 49.1554 16.8272V16.8344C49.088 16.8272 44.0853 16.8272 44.0853 16.8272L44.3405 17.0578C44.3405 17.0578 45.0868 17.7424 45.419 18.0522C45.7464 18.3621 45.9149 18.7152 45.9149 19.7672V22.3829C45.5394 22.5631 45.1494 22.6424 44.6871 22.6424C42.6456 22.6424 41.6104 20.9922 41.6104 17.7424C41.6104 14.6438 42.7467 12.864 44.7208 12.864C45.9583 12.864 47.2583 13.2964 48.8472 15.0834L48.8376 14.9537L48.4717 9.80151L48.4476 9.4196L48.1972 9.33313L47.9565 9.25387C46.8972 8.88637 46.4831 8.78548 45.8523 8.67019C45.4816 8.60534 45.2794 8.56931 44.8123 8.56931H44.6101C40.8834 8.56931 38.1774 12.4749 38.1774 17.8433C38.1774 23.1324 40.8978 26.9803 44.6438 26.9803C45.2986 26.9803 46.5601 26.8001 47.3546 26.5551C47.5039 26.5047 47.5905 26.4759 47.7109 26.4326C47.735 26.4182 47.7639 26.411 47.7879 26.4038C48.2357 26.2453 48.6931 26.0723 49.1506 25.8634L49.7332 25.5896L49.6802 25.4454ZM138.294 17.5334C138.294 19.6015 137.841 21.6407 137.051 23.1179C136.705 23.7737 136.276 24.3574 135.776 24.869C134.596 26.0507 133.508 26.4903 131.76 26.4903H125.539L125.804 26.2597C125.804 26.2525 126.574 25.5823 126.931 25.2581C127.277 24.9482 127.417 24.6456 127.417 23.5431V13.2531C127.417 12.1218 127.21 11.8119 126.911 11.4949C125.375 9.81592 125.25 7.89196 125.245 7.81269L125.231 7.55328L125.375 7.6974C125.38 7.7046 125.891 8.1946 126.454 8.38916C127.109 8.61254 128.009 8.65578 129.901 8.65578H132.294V8.67019C133.488 8.74225 134.36 9.06651 135.222 9.74386C137.143 11.2499 138.294 14.1611 138.294 17.5334ZM134.832 17.5766C134.832 14.6583 133.826 12.9793 132.073 12.9793H130.734V22.1452H132.073C133.826 22.1524 134.832 20.4806 134.832 17.5766ZM203.921 15.069L203.439 14.8961L203.396 14.8816C202.265 14.4781 201.523 14.1611 201.523 13.4405C201.523 13.1955 201.571 13.0009 201.668 12.8568C201.87 12.5542 202.279 12.3884 202.838 12.3884C202.929 12.3884 203.025 12.3956 203.122 12.4028H203.16C203.179 12.41 203.199 12.41 203.218 12.4172C204.243 12.5542 205.466 13.2171 206.718 14.4637L206.521 9.20342L206.29 9.08813L206.247 9.06651C206.227 9.05931 206.097 8.98725 205.707 8.86475C205.471 8.78548 204.263 8.39637 203.536 8.3171C203.3 8.28828 203.069 8.28107 202.847 8.28107C200.194 8.28107 198.644 10.1618 198.48 13.5846C198.398 15.2924 198.962 16.9641 199.905 17.8288C200.753 18.5999 202.019 19.1835 202.943 19.6087L203.155 19.7024C203.733 19.969 204.402 20.5022 204.311 21.5399C204.263 22.0803 204.123 22.664 203.035 22.664C202.876 22.664 202.708 22.6496 202.515 22.6279C201.764 22.5271 200.887 21.8857 199.915 20.7256C199.876 20.6752 199.843 20.6391 199.823 20.6175L199.222 19.933L198.6 19.234L198.846 25.8994L199.077 26.0147L199.12 26.0363C199.13 26.0363 199.26 26.1012 199.66 26.2381C200.059 26.375 201.374 26.7137 202.048 26.7857C202.265 26.8073 202.486 26.8218 202.703 26.8218C205.596 26.8218 207.508 24.6672 207.566 21.3309C207.624 18.1099 206.391 16.0058 203.921 15.069ZM185.538 17.555C185.538 22.8153 182.74 26.7785 179.028 26.7785C175.291 26.7785 172.581 22.945 172.581 17.6703C172.581 12.3092 175.277 8.41798 178.994 8.41798C182.726 8.42519 185.538 12.3524 185.538 17.555ZM182.114 17.555C182.114 14.6366 180.882 12.7559 178.965 12.7559C177.131 12.7559 175.99 14.6366 175.99 17.6703C175.99 20.6031 177.198 22.4982 179.062 22.4982C180.857 22.4982 182.114 20.4662 182.114 17.555ZM161.112 25.2941L162.118 26.4759H155.892C155.892 26.4759 156.422 25.7193 156.658 25.3446C156.865 25.0203 156.971 24.696 156.817 24.1484C156.783 24.0115 156.711 23.7232 156.624 23.3557H152.31C152.223 23.7088 152.151 23.9971 152.108 24.1484C151.934 24.7897 151.973 24.9698 152.214 25.3157C152.478 25.6976 153.128 26.4759 153.128 26.4759H146.599L143.605 21.0715L143.6 21.0571L143.595 21.0427C143.268 20.3725 143.022 19.9978 142.796 19.8177C142.737 19.7804 142.675 19.7514 142.613 19.7312V23.5287C142.613 24.6456 142.752 24.8473 143.109 25.2509C143.47 25.6616 144.524 26.4759 144.524 26.4759H137.562C137.562 26.4759 138.626 25.5823 138.958 25.2509C139.266 24.941 139.449 24.6672 139.449 23.5359V11.675C139.449 10.5725 139.29 10.2339 138.953 9.92401C138.607 9.59975 137.904 8.93681 137.904 8.93681L137.658 8.69901H143.325C144.413 8.72063 144.847 8.77107 145.453 9.0449C146.912 9.67181 147.813 11.4877 147.813 13.7791C147.813 14.8456 147.611 15.8328 147.235 16.6399C146.951 17.2668 146.575 17.7856 146.142 18.1531C147.389 20.6463 148.371 22.4982 148.978 23.4926C149.017 23.3846 152.584 10.5077 152.584 10.5077C152.594 10.414 152.604 10.3347 152.604 10.2627C152.604 10.169 152.604 10.0609 152.425 9.82313L151.583 8.6774H156.273C156.273 8.6774 160.177 23.4999 160.206 23.5935H160.202C160.312 23.961 160.341 24.0331 160.452 24.2925C160.611 24.6528 160.669 24.7753 161.112 25.2941ZM144.553 13.7503C144.553 12.8352 144.158 12.2299 143.008 12.2227L142.608 12.2299V16.3805C142.776 16.3877 142.94 16.3877 143.003 16.3877C143.759 16.3805 144.553 16.1283 144.553 13.7503ZM155.618 19.1331L154.544 14.7519L153.379 19.1331H155.618ZM199 8.67019H192.254L192.51 8.90078C192.514 8.90798 193.16 9.49886 193.559 9.88798C193.92 10.2483 194.055 10.4933 194.055 11.6462V15.9625L189.077 8.67019H185.114L185.35 8.90078C185.355 8.90798 185.961 9.49886 186.313 9.88078C186.659 10.2555 186.823 10.6374 186.823 11.7975V23.5431C186.823 24.696 186.684 24.941 186.342 25.2581C185.961 25.604 185.22 26.2453 185.215 26.2525L184.945 26.4903H191.71L191.441 26.2525C191.431 26.2453 190.68 25.5968 190.319 25.2581C189.982 24.941 189.832 24.6744 189.832 23.5431V16.4597L197.064 27.0596V11.6462C197.064 10.5005 197.194 10.2627 197.56 9.88798C197.96 9.48445 198.697 8.90798 198.706 8.90078L199 8.67019ZM171.627 24.6888C171.536 24.4799 171.483 24.2925 171.483 23.5647V18.7584C171.483 18.0306 171.526 17.8937 171.618 17.6775C171.719 17.4397 171.892 17.0866 171.892 17.0866L171.95 16.9713L171.863 16.8993C171.854 16.8921 171.632 16.7191 171.382 16.6759V16.6831C171.314 16.6759 166.312 16.6759 166.312 16.6759L166.567 16.9137C166.567 16.9137 167.313 17.591 167.65 17.9081C167.978 18.2108 168.141 18.5638 168.141 19.6231V22.2388C167.766 22.419 167.376 22.4982 166.914 22.4982C164.872 22.4982 163.837 20.8481 163.837 17.591C163.837 14.4925 164.968 12.7127 166.947 12.7127C168.185 12.7127 169.49 13.1378 171.074 14.9249L171.064 14.7952L170.698 9.64298L170.669 9.26107L170.424 9.1746L170.183 9.08813C169.124 8.72063 168.709 8.62696 168.079 8.50446C167.708 8.4396 167.506 8.40357 167.039 8.40357H166.837C163.11 8.40357 160.404 12.3019 160.404 17.6775C160.404 22.9666 163.124 26.8146 166.87 26.8146C167.525 26.8146 168.787 26.6344 169.581 26.3822C169.73 26.3318 169.817 26.3029 169.937 26.2597L170.014 26.2381C170.462 26.0796 170.92 25.9066 171.377 25.6976L171.96 25.4238L171.892 25.2797C171.902 25.2797 171.728 24.9266 171.627 24.6888ZM118.851 14.1827C116.285 14.37 114.089 17.6199 112.953 19.9257C113.155 20.0266 113.362 20.1707 113.564 20.4085C113.8 20.6968 114.152 21.1219 114.523 21.5831C114.826 20.5743 115.514 18.5422 116.564 16.7408C117.522 15.0978 119.198 14.9393 120.074 15.9409C120.637 15.1771 122.588 14.4565 123.613 14.8961C122.992 13.88 121.663 12.5181 120.195 12.5181C118.986 12.5181 118.302 13.4044 118.129 13.0081C117.907 12.4965 118.947 11.7399 118.947 11.7399C117.517 11.8264 116.482 14.3412 116.049 14.0314C115.789 13.844 116.434 12.6262 116.434 12.6262C115.129 13.7647 114.031 16.1643 113.805 17.6343C114.999 15.4293 117.334 13.8512 118.851 14.1827ZM111.051 24.3574C110.391 26.0291 109.014 28.1837 107.608 28.1837C105.023 28.1837 103.723 22.7144 106.607 18.2252C106.443 18.1459 106.284 18.1387 106.231 18.1387C105.986 18.1387 105.75 18.2324 105.591 18.3981L104.315 20.041L104.676 17.3677C104.7 17.274 104.719 17.1875 104.748 17.0938C104.108 17.5838 103.487 18.254 103.246 18.6431L102.09 20.5238L102.206 17.8649L102.283 17.2812C102.341 16.8705 102.413 16.3516 102.37 16.1859C102.353 16.135 102.328 16.0906 102.298 16.0562C101.763 16.6759 100.304 18.5999 100.131 21.4606C100.131 21.4606 100.415 20.8625 100.66 20.7184C100.824 20.6247 100.964 20.7472 100.81 21.4606C100.752 21.7416 99.3315 27.4775 102.119 31.4551C102.119 31.4551 101.811 30.2878 101.999 29.9347C102.09 29.7617 102.206 29.7473 102.37 30.0572C102.485 30.295 102.61 30.5256 102.745 30.749V30.7562C102.976 31.1525 103.227 31.52 103.506 31.837C104.339 32.7089 105.471 33.4151 106.761 33.4151C110.194 33.4151 112.014 29.8987 113.03 26.9154C112.982 26.829 112.948 26.7425 112.885 26.6632C112.375 25.9787 111.624 25.0419 111.051 24.3574ZM103.333 9.62136C103.285 9.0449 103.309 8.45401 103.424 7.92078L103.925 5.57888L104.556 7.84152C104.739 8.49725 105.124 8.98004 105.586 9.4196C105.548 8.33152 105.678 7.12093 105.938 6.29226C105.885 4.54123 106.694 3.22977 107.661 3.22977C109.318 3.22977 109.761 6.2274 108.99 8.37475C109.347 9.18181 109.891 9.92401 110.372 10.5725C110.545 10.8031 110.704 11.0265 110.849 11.2283C110.892 11.3003 110.916 11.358 110.964 11.4228C111.682 9.96725 112.211 7.92799 112.211 6.39314C112.211 3.20815 110.83 0.253745 107.95 0.0159516C106.125 -0.128166 104.893 0.71492 103.973 2.11286C103.559 2.74697 102.635 4.35388 102.808 7.25784C102.875 8.36034 103.121 9.12416 103.333 9.62136Z" fill="#9C2B1B"/>
</svg>
