<svg width="225" height="226" viewBox="0 0 225 226" fill="none" xmlns="http://www.w3.org/2000/svg">
<g clip-path="url(#clip0_108_143)">
<path d="M182.5 197.56H42.5V169.373L84.5 98.9067L142.026 169.373L182.5 141.187V197.56Z" fill="#9C2B1B"/>
<path d="M182.5 105.953C182.5 117.623 173.092 127.093 161.5 127.093C149.908 127.093 140.5 117.623 140.5 105.953C140.5 94.2842 149.908 84.8135 161.5 84.8135C173.092 84.8135 182.5 94.2842 182.5 105.953Z" fill="#9C2B1B"/>
<path d="M201.274 50.6935C196.416 44.0273 189.64 36.2196 182.206 28.736C174.772 21.2525 167.016 14.4313 160.394 9.54092C149.11 1.21176 143.636 0.253418 140.5 0.253418H32C22.354 0.253418 14.5 8.15978 14.5 17.8701V208.13C14.5 217.84 22.354 225.747 32 225.747H193C202.646 225.747 210.5 217.84 210.5 208.13V70.7201C210.5 67.5632 209.548 62.0527 201.274 50.6935ZM172.294 38.7141C179.014 45.4789 184.278 51.5672 188.17 56.6268H154.486V22.7323C159.512 26.6502 165.574 31.9493 172.28 38.7141H172.294ZM196.5 208.13C196.5 210.047 194.904 211.653 193 211.653H32C30.11 211.653 28.5 210.047 28.5 208.13V17.8701C28.5 15.9675 30.11 14.3468 32 14.3468C32 14.3468 140.486 14.3468 140.5 14.3468V63.6734C140.5 67.5632 143.636 70.7201 147.5 70.7201H196.5V208.13Z" fill="#9C2B1B"/>
</g>
<defs>
<clipPath id="clip0_108_143">
<rect width="224" height="225.493" fill="white" transform="translate(0.5 0.253418)"/>
</clipPath>
</defs>
</svg>
