<svg width="48" height="48" viewBox="0 0 48 48" fill="none" xmlns="http://www.w3.org/2000/svg">
<g clip-path="url(#clip0_5711_234)">
<path d="M10.2802 30.2362C10.2802 32.9953 8.05028 35.2252 5.29122 35.2252C2.53217 35.2252 0.302246 32.9953 0.302246 30.2362C0.302246 27.4772 2.53217 25.2473 5.29122 25.2473H10.2802V30.2362ZM12.7747 30.2362C12.7747 27.4772 15.0046 25.2473 17.7637 25.2473C20.5227 25.2473 22.7526 27.4772 22.7526 30.2362V42.7087C22.7526 45.4677 20.5227 47.6976 17.7637 47.6976C15.0046 47.6976 12.7747 45.4677 12.7747 42.7087V30.2362Z" fill="#E01E5A"/>
<path d="M17.7634 10.2047C15.0043 10.2047 12.7744 7.97479 12.7744 5.21574C12.7744 2.45668 15.0043 0.226761 17.7634 0.226761C20.5224 0.226761 22.7523 2.45668 22.7523 5.21574V10.2047H17.7634ZM17.7634 12.737C20.5224 12.737 22.7523 14.9669 22.7523 17.726C22.7523 20.485 20.5224 22.715 17.7634 22.715H5.25314C2.49408 22.715 0.26416 20.485 0.26416 17.726C0.26416 14.9669 2.49408 12.737 5.25314 12.737H17.7634Z" fill="#36C5F0"/>
<path d="M37.7576 17.726C37.7576 14.9669 39.9875 12.737 42.7466 12.737C45.5056 12.737 47.7356 14.9669 47.7356 17.726C47.7356 20.485 45.5056 22.715 42.7466 22.715H37.7576V17.726ZM35.2631 17.726C35.2631 20.485 33.0332 22.715 30.2741 22.715C27.5151 22.715 25.2852 20.485 25.2852 17.726V5.21574C25.2852 2.45668 27.5151 0.226761 30.2741 0.226761C33.0332 0.226761 35.2631 2.45668 35.2631 5.21574V17.726V17.726Z" fill="#2EB67D"/>
<path d="M30.2741 37.7197C33.0332 37.7197 35.2631 39.9496 35.2631 42.7087C35.2631 45.4677 33.0332 47.6976 30.2741 47.6976C27.5151 47.6976 25.2852 45.4677 25.2852 42.7087V37.7197H30.2741ZM30.2741 35.2252C27.5151 35.2252 25.2852 32.9953 25.2852 30.2362C25.2852 27.4772 27.5151 25.2473 30.2741 25.2473H42.7844C45.5434 25.2473 47.7734 27.4772 47.7734 30.2362C47.7734 32.9953 45.5434 35.2252 42.7844 35.2252H30.2741Z" fill="#ECB22E"/>
</g>
<defs>
<clipPath id="clip0_5711_234">
<rect width="48" height="48" fill="white"/>
</clipPath>
</defs>
</svg>
