<svg width="133" height="66" viewBox="0 0 133 66" fill="none" xmlns="http://www.w3.org/2000/svg">
<rect x="0.5" y="0.5" width="132" height="65" rx="16.5" fill="#EBE1AC"/>
<path d="M64.3068 6.50051C64.1931 6.50135 64.0795 6.50514 63.966 6.51189C62.3558 6.60661 60.9574 7.27123 60.248 8.4965L61.6611 9.41663H59.3111C58.4826 9.03072 59.3441 9.3971 58.3991 9.02896C56.5424 8.0658 54.4877 8.32117 53.0074 9.23542C51.399 10.2286 50.5434 11.8644 51.3839 13.6476L51.6319 14.173L51.1132 14.4895C49.3946 15.5438 48.4677 16.721 48.1368 18.023C47.8058 19.3252 48.0711 20.812 48.9811 22.4904L49.1791 22.8597L48.9186 23.1948C47.8125 24.6178 48.2066 26.0339 49.397 26.9416C50.2022 27.5557 50.9588 27.6745 51.7747 27.4854C52.5906 27.2964 53.4703 26.7402 54.2376 25.8794L54.4505 25.6408L54.7836 25.627C57.0066 25.5389 58.7674 24.7728 59.9123 23.5918C61.0572 22.4108 61.6136 20.8032 61.3328 18.8996L61.2501 18.3421L61.8313 18.1585C62.478 17.9553 63.0123 17.5601 63.3397 17.0183L63.763 16.3161L64.4546 16.8095C64.9669 17.1748 66.2976 17.426 66.9701 17.2476L67.7942 17.0296L67.9196 17.8075C68.2644 19.9633 69.8753 21.6647 71.9331 22.2242L72.5946 22.4032L72.4543 23.0227C72.2007 24.1233 72.5743 24.9372 73.2913 25.4754C74.008 26.0138 75.1187 26.2598 76.398 25.9481L76.8964 25.8265L77.1997 26.212C78.283 27.5956 79.6005 28.2742 80.9151 28.3825C82.2297 28.4908 83.584 28.0341 84.766 26.9439C85.7781 26.0102 86.1012 24.9974 85.9735 23.9749C85.8461 22.9521 85.2265 21.9102 84.2298 21.0723L83.5483 20.4987L84.3024 20.0077C84.934 19.5965 85.1635 18.8388 85.0165 18.1354C84.8695 17.432 84.413 16.9109 83.7061 16.8299L82.9544 16.745L83.0571 16.0567C83.5254 12.9313 81.9651 10.3556 79.4218 8.88652C76.8785 7.41734 73.3548 7.0887 69.8986 8.65928L69.3599 8.9048L68.9817 8.47337C67.9022 7.24017 66.2539 6.58142 64.6497 6.50697C64.5354 6.50166 64.421 6.49938 64.3065 6.50014L64.3068 6.50051ZM64.209 18.2709C63.888 18.6236 63.4981 18.9114 63.0665 19.1359C64.026 21.3378 64.5762 23.5987 64.9131 26.0033C64.5479 26.8283 64.1374 27.6464 63.6704 28.4583L63.6578 28.463C62.9732 27.0285 62.2089 25.6027 61.1574 24.3697C61.1163 24.4146 61.0745 24.4589 61.0321 24.5027C60.7412 24.8029 60.4186 25.0782 60.07 25.3287C61.0348 26.4937 61.7575 27.886 62.4528 29.3624C63.072 32.5482 62.9647 36.0634 62.2297 39.2606C60.0869 39.6331 57.8043 40.3781 55.1268 41.5H75.4058C72.8059 40.378 70.5739 39.6307 68.4557 39.2584C67.3373 37.4878 66.7691 35.5778 66.5916 33.6783C67.3687 30.3615 68.8769 28.4145 71.1615 26.3888C69.6161 26.9527 68.1613 27.6597 66.9374 28.7337C66.9937 28.4833 67.0567 28.2369 67.1226 27.9927C67.8824 26.2215 69.0364 24.6285 70.5653 23.1904C70.1016 22.9918 69.6633 22.7503 69.2598 22.4654C68.2408 23.4604 67.3713 24.5306 66.6692 25.6798C67.243 24.2711 67.7019 22.8588 68.1174 21.4513C67.6753 20.963 67.3094 20.4209 67.03 19.8405C66.6959 21.0175 66.3476 22.1861 65.9477 23.3443C65.5759 21.631 65.0562 19.961 64.3141 18.317C64.279 18.3021 64.2436 18.2869 64.2089 18.2711L64.209 18.2709Z" fill="black"/>
<path d="M28.1787 55.5H27.8184C27.4199 54.9609 26.2773 53.502 24.3906 51.123C22.5039 48.7383 21.1562 47.0127 20.3477 45.9463C19.9961 45.4893 19.6592 44.9531 19.3369 44.3379L19.2842 44.373V54.3662C19.2842 54.5889 19.3545 54.7617 19.4951 54.8848C19.6416 55.0078 19.7998 55.0928 19.9697 55.1396C20.1455 55.1807 20.3857 55.2275 20.6904 55.2803C20.9951 55.333 21.1738 55.3652 21.2266 55.377V55.5527C20.1191 55.4824 19.2314 55.4824 18.5635 55.5527C18.5283 55.3945 18.5107 55.2393 18.5107 55.0869V44.9707C18.4932 44.5547 18.4199 44.1826 18.291 43.8545C18.1211 43.3975 17.7314 43.1924 17.1221 43.2393V43.0635C17.9424 42.8584 18.748 42.7559 19.5391 42.7559L26.1572 51.2197C26.4678 51.6123 26.7139 51.9668 26.8955 52.2832C27.083 52.5938 27.2646 52.9834 27.4404 53.4521V44.3027C27.4404 43.8926 27.2852 43.6025 26.9746 43.4326C26.6699 43.2568 26.1895 43.1924 25.5332 43.2393L25.4893 43.0635C26.251 42.876 27.0977 42.7734 28.0293 42.7559C28.1289 42.9082 28.1787 43.0635 28.1787 43.2217V55.5ZM31.0527 51.2197C31.0527 50.5986 31.1553 49.998 31.3604 49.418C31.5654 48.832 31.8584 48.3135 32.2393 47.8623C32.6201 47.4053 33.0801 47.042 33.6191 46.7725C34.1641 46.4971 34.7734 46.3594 35.4473 46.3594C35.8691 46.3594 36.2676 46.4326 36.6426 46.5791C37.0176 46.7197 37.3428 46.9424 37.6182 47.2471C37.8994 47.5459 38.1191 47.9326 38.2773 48.4072C38.4414 48.876 38.5234 49.4355 38.5234 50.0859L38.1807 50.4023H32.4414C32.4297 50.502 32.4238 50.5986 32.4238 50.6924C32.4238 50.7861 32.4238 50.8799 32.4238 50.9736C32.4238 51.6123 32.4971 52.1924 32.6436 52.7139C32.7959 53.2354 32.998 53.6836 33.25 54.0586C33.5078 54.4277 33.8096 54.7148 34.1553 54.9199C34.501 55.125 34.8672 55.2275 35.2539 55.2275C35.5 55.2275 35.749 55.21 36.001 55.1748C36.2588 55.1338 36.5078 55.0723 36.748 54.9902C36.9941 54.9082 37.2314 54.8027 37.46 54.6738C37.6885 54.5449 37.8994 54.3896 38.0928 54.208L38.4531 54.5859C37.9902 55.043 37.4863 55.3682 36.9414 55.5615C36.3965 55.7607 35.7666 55.8604 35.0518 55.8604C34.4893 55.8604 33.9619 55.752 33.4697 55.5352C32.9834 55.3184 32.5615 55.0078 32.2041 54.6035C31.8467 54.1992 31.5654 53.7129 31.3604 53.1445C31.1553 52.5703 31.0527 51.9287 31.0527 51.2197ZM35.2539 46.9658C34.3457 46.9658 33.6807 47.2031 33.2588 47.6777C32.8369 48.1465 32.582 48.8232 32.4941 49.708H37.3896C37.3428 48.7471 37.126 48.0498 36.7393 47.6162C36.3584 47.1826 35.8633 46.9658 35.2539 46.9658ZM44.3506 55.9482L43.7354 55.7725L40.9141 48.3721C40.8379 48.1494 40.7588 47.959 40.6768 47.8008C40.5947 47.6426 40.4863 47.5166 40.3516 47.4229C40.2168 47.3291 40.041 47.2705 39.8242 47.2471C39.6133 47.2236 39.3408 47.2324 39.0068 47.2734L38.9189 47.0977C39.9033 46.6055 40.7852 46.3594 41.5645 46.3594L43.8848 52.5645C44.084 53.2383 44.2217 53.7773 44.2979 54.1816H44.4385C44.4619 54.1055 44.5059 53.9619 44.5703 53.751C44.6348 53.5342 44.6934 53.3525 44.7461 53.2061C44.7988 53.0537 44.8545 52.9072 44.9131 52.7666L47.2158 47.458C47.3271 47.1885 47.1631 47.0156 46.7236 46.9395C46.4834 46.9043 46.1787 46.9014 45.8096 46.9307L45.7568 46.7197C46.501 46.5615 47.3271 46.4707 48.2354 46.4473L48.3496 46.623L44.3506 55.9482ZM49.6504 51.2197C49.6504 50.5986 49.7529 49.998 49.958 49.418C50.1631 48.832 50.4561 48.3135 50.8369 47.8623C51.2178 47.4053 51.6777 47.042 52.2168 46.7725C52.7617 46.4971 53.3711 46.3594 54.0449 46.3594C54.4668 46.3594 54.8652 46.4326 55.2402 46.5791C55.6152 46.7197 55.9404 46.9424 56.2158 47.2471C56.4971 47.5459 56.7168 47.9326 56.875 48.4072C57.0391 48.876 57.1211 49.4355 57.1211 50.0859L56.7783 50.4023H51.0391C51.0273 50.502 51.0215 50.5986 51.0215 50.6924C51.0215 50.7861 51.0215 50.8799 51.0215 50.9736C51.0215 51.6123 51.0947 52.1924 51.2412 52.7139C51.3936 53.2354 51.5957 53.6836 51.8477 54.0586C52.1055 54.4277 52.4072 54.7148 52.7529 54.9199C53.0986 55.125 53.4648 55.2275 53.8516 55.2275C54.0977 55.2275 54.3467 55.21 54.5986 55.1748C54.8564 55.1338 55.1055 55.0723 55.3457 54.9902C55.5918 54.9082 55.8291 54.8027 56.0576 54.6738C56.2861 54.5449 56.4971 54.3896 56.6904 54.208L57.0508 54.5859C56.5879 55.043 56.084 55.3682 55.5391 55.5615C54.9941 55.7607 54.3643 55.8604 53.6494 55.8604C53.0869 55.8604 52.5596 55.752 52.0674 55.5352C51.5811 55.3184 51.1592 55.0078 50.8018 54.6035C50.4443 54.1992 50.1631 53.7129 49.958 53.1445C49.7529 52.5703 49.6504 51.9287 49.6504 51.2197ZM53.8516 46.9658C52.9434 46.9658 52.2783 47.2031 51.8564 47.6777C51.4346 48.1465 51.1797 48.8232 51.0918 49.708H55.9873C55.9404 48.7471 55.7236 48.0498 55.3369 47.6162C54.9561 47.1826 54.4609 46.9658 53.8516 46.9658ZM60.0654 48.9873C60.0654 48.5947 60.0449 48.2666 60.0039 48.0029C59.9688 47.7393 59.9014 47.5283 59.8018 47.3701C59.708 47.2119 59.5762 47.1006 59.4062 47.0361C59.2363 46.9717 58.9404 46.9424 58.5186 46.9482L58.4834 46.79C59.4385 46.5029 60.3262 46.3594 61.1465 46.3594C61.2695 46.6699 61.3311 47.0039 61.3311 47.3613V48.4424L61.3662 48.4775C61.6123 48.1377 61.8467 47.8359 62.0693 47.5723C62.2979 47.3086 62.5293 47.0889 62.7637 46.9131C62.998 46.7373 63.2441 46.6055 63.502 46.5176C63.7598 46.4238 64.0469 46.377 64.3633 46.377C64.5625 46.377 64.7822 46.3945 65.0225 46.4297L64.5127 48.5742L64.1875 48.4775C64.1875 48.3896 64.1816 48.2695 64.1699 48.1172C64.1582 47.9648 64.1406 47.8154 64.1172 47.6689C64.0996 47.5166 64.0732 47.3877 64.0381 47.2822C64.0088 47.1709 63.9736 47.1152 63.9326 47.1152C63.7627 47.1152 63.5898 47.1533 63.4141 47.2295C63.2441 47.2998 63.0566 47.417 62.8516 47.5811C62.6465 47.7451 62.4209 47.959 62.1748 48.2227C61.9287 48.4863 61.6475 48.8057 61.3311 49.1807V54.2959C61.3311 54.4834 61.3457 54.6357 61.375 54.7529C61.4043 54.8643 61.4658 54.958 61.5596 55.0342C61.6533 55.1104 61.7852 55.1777 61.9551 55.2363C62.125 55.2949 62.3477 55.3594 62.623 55.4297L62.5527 55.6406C62.2129 55.5938 61.9229 55.5586 61.6826 55.5352C61.4482 55.5117 61.2578 55.5 61.1113 55.5C60.7773 55.5 60.3877 55.5469 59.9424 55.6406L59.8896 55.5527C60.0068 55.3828 60.0654 55.0723 60.0654 54.6211V48.9873ZM76.3779 55.9482L75.7715 55.7725L73.6445 48.7852L70.876 55.9482L70.2607 55.7725L67.6504 48.3721C67.5566 48.0674 67.4453 47.8271 67.3164 47.6514C67.1875 47.4756 67.0498 47.3613 66.9033 47.3086C66.7627 47.2559 66.6045 47.2266 66.4287 47.2207C66.2588 47.209 66.0303 47.2266 65.7432 47.2734L65.6553 47.0977C66.6396 46.6055 67.5098 46.3594 68.2656 46.3594L70.4805 52.5117C70.6035 52.9277 70.7354 53.4668 70.876 54.1289H71.0166C71.2334 53.4141 71.3887 52.9424 71.4824 52.7139L73.3369 47.9238C73.2666 47.7305 73.1699 47.584 73.0469 47.4844C72.9238 47.3848 72.8154 47.3115 72.7217 47.2646C72.6689 47.2354 72.5898 47.2178 72.4844 47.2119C72.3848 47.2002 72.2793 47.1973 72.168 47.2031C72.0625 47.2031 71.957 47.2119 71.8516 47.2295C71.752 47.2412 71.6729 47.2559 71.6143 47.2734L71.5176 47.0977C72.502 46.6055 73.3662 46.3594 74.1104 46.3594L76.0352 52.4766C76.1758 52.9277 76.3076 53.4668 76.4307 54.0938H76.5801C76.7617 53.4961 76.917 53.0215 77.0459 52.6699L79.1201 47.4756C79.1787 47.335 79.1641 47.2207 79.0762 47.1328C78.9883 47.0449 78.833 46.9863 78.6104 46.957C78.3877 46.9219 78.1123 46.9189 77.7842 46.9482L77.7314 46.7373C78.4814 46.5732 79.3047 46.4824 80.2012 46.4648L80.3066 46.6406L76.3779 55.9482ZM88.8848 49.3652C88.8848 48.873 88.8379 48.4717 88.7441 48.1611C88.6504 47.8447 88.5215 47.5986 88.3574 47.4229C88.1992 47.2412 88.0117 47.1152 87.7949 47.0449C87.584 46.9746 87.3584 46.9395 87.1182 46.9395C86.8252 46.9395 86.5498 46.9658 86.292 47.0186C86.04 47.0713 85.7852 47.1533 85.5273 47.2646C85.2754 47.3701 85.0176 47.5049 84.7539 47.6689C84.4902 47.8271 84.2061 48.0146 83.9014 48.2314V54.2959C83.9014 54.4834 83.916 54.6357 83.9453 54.7529C83.9746 54.8643 84.0361 54.958 84.1299 55.0342C84.2236 55.1104 84.3555 55.1777 84.5254 55.2363C84.6953 55.2949 84.918 55.3594 85.1934 55.4297L85.123 55.6406C84.7832 55.5938 84.4932 55.5586 84.2529 55.5352C84.0186 55.5117 83.7812 55.5 83.541 55.5C83.3008 55.5 82.958 55.5469 82.5127 55.6406L82.46 55.5527C82.5771 55.3828 82.6357 55.0723 82.6357 54.6211V44.0918C82.6357 43.6992 82.6152 43.3711 82.5742 43.1074C82.5391 42.8438 82.4717 42.6328 82.3721 42.4746C82.2783 42.3164 82.1465 42.2051 81.9766 42.1406C81.8066 42.0762 81.625 42.0439 81.4316 42.0439C81.2441 42.0439 81.1299 42.0469 81.0889 42.0527L81.0537 41.8945C82.0088 41.6074 82.8965 41.4639 83.7168 41.4639C83.8398 41.7744 83.9014 42.1084 83.9014 42.4658V47.6162C84.3057 47.3408 84.6719 47.1152 85 46.9395C85.334 46.7578 85.6445 46.6143 85.9316 46.5088C86.2246 46.4033 86.5 46.3301 86.7578 46.2891C87.0215 46.248 87.2881 46.2275 87.5576 46.2275C87.9268 46.2275 88.2637 46.2773 88.5684 46.377C88.8789 46.4707 89.1455 46.6289 89.3682 46.8516C89.5908 47.0684 89.7695 47.3555 89.9043 47.7129C90.0391 48.0703 90.1182 48.5127 90.1416 49.04V54.5068C90.1416 54.6475 90.1738 54.7646 90.2383 54.8584C90.3086 54.9521 90.3965 55.0312 90.502 55.0957C90.6133 55.1602 90.7393 55.2158 90.8799 55.2627C91.0205 55.3037 91.167 55.3477 91.3193 55.3945L91.2402 55.6055C90.9121 55.5352 90.5283 55.5 90.0889 55.5C89.6494 55.5 89.207 55.5469 88.7617 55.6406L88.709 55.5527C88.8262 55.3828 88.8848 55.0723 88.8848 54.6211V49.3652ZM93.0332 51.2197C93.0332 50.5986 93.1357 49.998 93.3408 49.418C93.5459 48.832 93.8389 48.3135 94.2197 47.8623C94.6006 47.4053 95.0605 47.042 95.5996 46.7725C96.1445 46.4971 96.7539 46.3594 97.4277 46.3594C97.8496 46.3594 98.248 46.4326 98.623 46.5791C98.998 46.7197 99.3232 46.9424 99.5986 47.2471C99.8799 47.5459 100.1 47.9326 100.258 48.4072C100.422 48.876 100.504 49.4355 100.504 50.0859L100.161 50.4023H94.4219C94.4102 50.502 94.4043 50.5986 94.4043 50.6924C94.4043 50.7861 94.4043 50.8799 94.4043 50.9736C94.4043 51.6123 94.4775 52.1924 94.624 52.7139C94.7764 53.2354 94.9785 53.6836 95.2305 54.0586C95.4883 54.4277 95.79 54.7148 96.1357 54.9199C96.4814 55.125 96.8477 55.2275 97.2344 55.2275C97.4805 55.2275 97.7295 55.21 97.9814 55.1748C98.2393 55.1338 98.4883 55.0723 98.7285 54.9902C98.9746 54.9082 99.2119 54.8027 99.4404 54.6738C99.6689 54.5449 99.8799 54.3896 100.073 54.208L100.434 54.5859C99.9707 55.043 99.4668 55.3682 98.9219 55.5615C98.377 55.7607 97.7471 55.8604 97.0322 55.8604C96.4697 55.8604 95.9424 55.752 95.4502 55.5352C94.9639 55.3184 94.542 55.0078 94.1846 54.6035C93.8271 54.1992 93.5459 53.7129 93.3408 53.1445C93.1357 52.5703 93.0332 51.9287 93.0332 51.2197ZM97.2344 46.9658C96.3262 46.9658 95.6611 47.2031 95.2393 47.6777C94.8174 48.1465 94.5625 48.8232 94.4746 49.708H99.3701C99.3232 48.7471 99.1064 48.0498 98.7197 47.6162C98.3389 47.1826 97.8438 46.9658 97.2344 46.9658ZM103.448 48.9873C103.448 48.5947 103.428 48.2666 103.387 48.0029C103.352 47.7393 103.284 47.5283 103.185 47.3701C103.091 47.2119 102.959 47.1006 102.789 47.0361C102.619 46.9717 102.323 46.9424 101.901 46.9482L101.866 46.79C102.821 46.5029 103.709 46.3594 104.529 46.3594C104.652 46.6699 104.714 47.0039 104.714 47.3613V48.4424L104.749 48.4775C104.995 48.1377 105.229 47.8359 105.452 47.5723C105.681 47.3086 105.912 47.0889 106.146 46.9131C106.381 46.7373 106.627 46.6055 106.885 46.5176C107.143 46.4238 107.43 46.377 107.746 46.377C107.945 46.377 108.165 46.3945 108.405 46.4297L107.896 48.5742L107.57 48.4775C107.57 48.3896 107.564 48.2695 107.553 48.1172C107.541 47.9648 107.523 47.8154 107.5 47.6689C107.482 47.5166 107.456 47.3877 107.421 47.2822C107.392 47.1709 107.356 47.1152 107.315 47.1152C107.146 47.1152 106.973 47.1533 106.797 47.2295C106.627 47.2998 106.439 47.417 106.234 47.5811C106.029 47.7451 105.804 47.959 105.558 48.2227C105.312 48.4863 105.03 48.8057 104.714 49.1807V54.2959C104.714 54.4834 104.729 54.6357 104.758 54.7529C104.787 54.8643 104.849 54.958 104.942 55.0342C105.036 55.1104 105.168 55.1777 105.338 55.2363C105.508 55.2949 105.73 55.3594 106.006 55.4297L105.936 55.6406C105.596 55.5938 105.306 55.5586 105.065 55.5352C104.831 55.5117 104.641 55.5 104.494 55.5C104.16 55.5 103.771 55.5469 103.325 55.6406L103.272 55.5527C103.39 55.3828 103.448 55.0723 103.448 54.6211V48.9873ZM109.662 51.2197C109.662 50.5986 109.765 49.998 109.97 49.418C110.175 48.832 110.468 48.3135 110.849 47.8623C111.229 47.4053 111.689 47.042 112.229 46.7725C112.773 46.4971 113.383 46.3594 114.057 46.3594C114.479 46.3594 114.877 46.4326 115.252 46.5791C115.627 46.7197 115.952 46.9424 116.228 47.2471C116.509 47.5459 116.729 47.9326 116.887 48.4072C117.051 48.876 117.133 49.4355 117.133 50.0859L116.79 50.4023H111.051C111.039 50.502 111.033 50.5986 111.033 50.6924C111.033 50.7861 111.033 50.8799 111.033 50.9736C111.033 51.6123 111.106 52.1924 111.253 52.7139C111.405 53.2354 111.607 53.6836 111.859 54.0586C112.117 54.4277 112.419 54.7148 112.765 54.9199C113.11 55.125 113.477 55.2275 113.863 55.2275C114.109 55.2275 114.358 55.21 114.61 55.1748C114.868 55.1338 115.117 55.0723 115.357 54.9902C115.604 54.9082 115.841 54.8027 116.069 54.6738C116.298 54.5449 116.509 54.3896 116.702 54.208L117.062 54.5859C116.6 55.043 116.096 55.3682 115.551 55.5615C115.006 55.7607 114.376 55.8604 113.661 55.8604C113.099 55.8604 112.571 55.752 112.079 55.5352C111.593 55.3184 111.171 55.0078 110.813 54.6035C110.456 54.1992 110.175 53.7129 109.97 53.1445C109.765 52.5703 109.662 51.9287 109.662 51.2197ZM113.863 46.9658C112.955 46.9658 112.29 47.2031 111.868 47.6777C111.446 48.1465 111.191 48.8232 111.104 49.708H115.999C115.952 48.7471 115.735 48.0498 115.349 47.6162C114.968 47.1826 114.473 46.9658 113.863 46.9658Z" fill="black"/>
<rect x="0.5" y="0.5" width="132" height="65" rx="16.5" stroke="#9C2B1B"/>
</svg>
